{"title":"Colossus 1970 BDRip 720p Multilanguage","uid":15362512,"size":4875330144,"categoryP":"video","categoryS":"hd___movies","magnet":"?xt=urn:btih:53dc8fd5bb68e40c2c6fda0bf1d615202be3fdfd&amp;dn=Colossus+1970+BDRip+720p+Multilanguage&amp;tr=udp%3A%2F%2Ftracker.leechers-paradise.org%3A6969&amp;tr=udp%3A%2F%2Fzer0day.ch%3A1337&amp;tr=udp%3A%2F%2Fopen.demonii.com%3A1337&amp;tr=udp%3A%2F%2Ftracker.coppersurfer.tk%3A6969&amp;tr=udp%3A%2F%2Fexodus.desync.com%3A6969","seeders":1,"leechers":0,"uploader":"TheLathe","files":1,"time":1469044490,"description":"Audio: English\r\nSubtitles/legendas: Português, German, English (MKV track)\r\n\r\n==========================================================\r\nThe granddaddy of all &quot;computer run amok&quot; films, Colossus: The Forbin Project concerns a huge electronic brain designed to control the American missile defense system. Colossus' technicians do not count on the computer developing an intelligence of its own. Communicating with its Russian counterpart, Colossus decides to take over the earth, threatening global destruction should anyone try to pull its plug. The film's climax is unsettling, but no more so than the actual state of world affairs in 1970. Colossus: The Forbin Project was filmed in Canada.\r\n\r\nWhen Colossus launches a missile toward the Soviet Union. The President of the United States turns to Forbin, the man who invented Colossus, and gives him a petulant look that seems to say: &quot;There goes the stock market . . . . the urban vote . . . . my golf game . . . .my image. You've made a fool out of me.&quot;\r\nIt's one of the appealing things about &quot;The Forbin Project,&quot; an unpretentious science fiction film with a satiric point of view, that when the world is about to blow up, the President of the United States can only bring to the occasion something akin to embarrassment.\r\n\r\nJames Bridge's screenplay is based on D. F. Jones's novel, &quot;Colossus,&quot; published in 1967, the year before Stanley Kubrick gave us &quot;2001: A Space Odyssey,&quot; which also had to do a machine so brilliant that it goes positively ape.\r\n\r\n=============================================================\r\nQuando Colossus lança um míssil contra a URSS, o presidente dos EUA dá um olhar petulante para o inventor da máquina, como se quisesse dizer: &quot;Lá se vai o mercado de ações... meus votos... meu jogo de golfe... minha imagem.&quot;\r\nUma das coisas interessantes em Colossus, um despretencioso filme de ficção científica com um ponto de vista satírico, é que quando o mundo está prestes a explodir, o presidente dos EUA faz um papel embaraçoso.\r\n\r\nO roteiro é baseado no romance Colossus de D.F. Jones, de 1967, um ano antes de Stanley Kubrick nos brindar com 2001: Uma Odisseia no Espaço, que também trata de computadores fazendo macaquices.\r\n\r\n=============================================================\r\n\r\nVideo\r\nID                             : 1\r\nFormat                         : AVC\r\nFormat/Info                    : Advanced Video Codec\r\nFormat profile                 :   \r\nFormat settings, CABAC         : Yes\r\nFormat settings, ReFrames      : 10 frames\r\nCodec ID                       : V_MPEG4/ISO/AVC\r\nDuration                       : 1h 40mn\r\nBit rate                       : 5 845 Kbps\r\nWidth                          : 1 280 pixels\r\nHeight                         : 544 pixels\r\nDisplay aspect ratio           : 2.35:1\r\nFrame rate mode                : Constant\r\nFrame rate                     : 23.976 fps\r\nColor space                    : YUV\r\nChroma subsampling             : 4:2:0\r\nBit depth                      : 8 bits\r\nScan type                      : Progressive\r\nBits/(Pixel*Frame)             : 0.350\r\nStream size                    : 4.00 GiB (88%)\r\n\r\nAudio\r\nID                             : 2\r\nFormat                         : AC-3\r\nFormat/Info                    : Audio Coding 3\r\nMode extension                 : CM (complete main)\r\nFormat settings, Endianness    : Big\r\nCodec ID                       : A_AC3\r\nDuration                       : 1h 40mn\r\nBit rate mode                  : Constant\r\nBit rate                       : 640 Kbps\r\nChannel(s)                     : 2 channels\r\nChannel positions              : Front: L R\r\nSampling rate                  : 48.0 KHz\r\nBit depth                      : 16 bits\r\nCompression mode               : Lossy\r\nStream size                    : 459 MiB (10%)\r\nDefault                        : Yes\r\nForced                         : No","torrent":{"xt":"urn:btih:53dc8fd5bb68e40c2c6fda0bf1d615202be3fdfd","amp;dn":"Colossus+1970+BDRip+720p+Multilanguage","amp;tr":["udp%3A%2F%2Ftracker.leechers-paradise.org%3A6969","udp%3A%2F%2Fzer0day.ch%3A1337","udp%3A%2F%2Fopen.demonii.com%3A1337","udp%3A%2F%2Ftracker.coppersurfer.tk%3A6969","udp%3A%2F%2Fexodus.desync.com%3A6969"],"infoHash":"53dc8fd5bb68e40c2c6fda0bf1d615202be3fdfd","infoHashBuffer":{"type":"Buffer","data":[83,220,143,213,187,104,228,12,44,111,218,11,241,214,21,32,43,227,253,253]},"announce":[],"urlList":[]}}